<?xml version="1.0" encoding="utf-8"?>
<!-- Generator: Adobe Illustrator 16.0.0, SVG Export Plug-In . SVG Version: 6.00 Build 0)  -->
<!DOCTYPE svg PUBLIC "-//W3C//DTD SVG 1.1//EN" "http://www.w3.org/Graphics/SVG/1.1/DTD/svg11.dtd">
<svg version="1.1" id="Layer_1" xmlns="http://www.w3.org/2000/svg" xmlns:xlink="http://www.w3.org/1999/xlink" x="0px" y="0px"
	 width="50px" height="50px" viewBox="231 167 50 50" enable-background="new 231 167 50 50" xml:space="preserve">
<path fill="#CF649A" d="M273.949,195.131c-1.743,0.01-3.252,0.446-4.518,1.096c-0.468-0.963-0.936-1.805-1.012-2.434
	c-0.088-0.73-0.195-1.177-0.088-2.049c0.106-0.873,0.594-2.11,0.594-2.21c-0.009-0.092-0.107-0.539-1.109-0.549
	c-1.004-0.01-1.87,0.204-1.968,0.477c-0.096,0.273-0.29,0.903-0.417,1.552c-0.176,0.953-2.005,4.331-3.048,6.106
	c-0.34-0.689-0.633-1.299-0.691-1.784c-0.087-0.731-0.194-1.178-0.087-2.05c0.106-0.873,0.594-2.109,0.594-2.211
	c-0.009-0.091-0.107-0.538-1.109-0.547c-1.003-0.011-1.87,0.202-1.967,0.476c-0.098,0.275-0.204,0.924-0.419,1.552
	c-0.204,0.629-2.638,6.269-3.27,7.738c-0.321,0.751-0.604,1.349-0.808,1.755c-0.205,0.407-0.01,0.031-0.029,0.071
	c-0.175,0.345-0.272,0.537-0.272,0.537v0.011c-0.136,0.254-0.282,0.496-0.351,0.496c-0.049,0-0.146-0.679,0.02-1.612
	c0.36-1.958,1.237-5.01,1.227-5.121c0-0.05,0.167-0.589-0.564-0.863c-0.711-0.271-0.964,0.184-1.022,0.184s-0.107,0.161-0.107,0.161
	s0.788-3.438-1.509-3.438c-1.44,0-3.426,1.632-4.409,3.125c-0.623,0.354-1.947,1.104-3.349,1.907
	c-0.535,0.304-1.09,0.629-1.616,0.923l-0.107-0.122c-2.784-3.093-7.934-5.284-7.719-9.442c0.078-1.511,0.583-5.497,9.89-10.325
	c7.622-3.957,13.725-2.871,14.787-0.457c1.509,3.449-3.261,9.858-11.186,10.781c-3.017,0.354-4.604-0.862-5.003-1.319
	c-0.418-0.477-0.477-0.497-0.632-0.406c-0.253,0.143-0.098,0.568,0,0.822c0.233,0.639,1.207,1.774,2.861,2.342
	c1.451,0.497,4.994,0.771,9.277-0.954c4.799-1.937,8.547-7.312,7.448-11.806c-1.12-4.574-8.402-6.074-15.284-3.529
	c-4.099,1.521-8.538,3.895-11.731,7.009c-3.796,3.692-4.399,6.917-4.147,8.256c0.886,4.777,7.204,7.892,9.735,10.192
	c-0.127,0.07-0.244,0.143-0.351,0.203c-1.266,0.649-6.084,3.275-7.291,6.055c-1.363,3.145,0.214,5.406,1.266,5.711
	c3.251,0.943,6.581-0.751,8.381-3.54c1.792-2.789,1.577-6.409,0.75-8.063l-0.029-0.062l0.993-0.608
	c0.642-0.396,1.275-0.762,1.83-1.075c-0.312,0.882-0.535,1.927-0.652,3.449c-0.136,1.784,0.564,4.097,1.489,5.009
	c0.409,0.396,0.896,0.406,1.198,0.406c1.07,0,1.557-0.922,2.093-2.029c0.662-1.348,1.246-2.911,1.246-2.911s-0.729,4.23,1.266,4.23
	c0.73,0,1.46-0.983,1.792-1.492v0.012c0,0,0.019-0.031,0.058-0.102c0.078-0.122,0.117-0.193,0.117-0.193v-0.02
	c0.292-0.528,0.943-1.734,1.918-3.732c1.255-2.576,2.462-5.801,2.462-5.801s0.117,0.791,0.477,2.088
	c0.215,0.771,0.682,1.613,1.043,2.435c-0.293,0.427-0.468,0.669-0.468,0.669l0.01,0.011c-0.234,0.324-0.496,0.67-0.769,1.014
	c-0.993,1.238-2.182,2.648-2.337,3.054c-0.185,0.477-0.146,0.833,0.214,1.115c0.263,0.202,0.729,0.243,1.228,0.202
	c0.896-0.061,1.519-0.293,1.829-0.435c0.486-0.185,1.042-0.457,1.577-0.862c0.974-0.751,1.568-1.816,1.509-3.235
	c-0.029-0.782-0.273-1.553-0.573-2.283c0.086-0.132,0.174-0.263,0.262-0.405c1.539-2.344,2.727-4.92,2.727-4.92
	s0.116,0.792,0.476,2.09c0.185,0.659,0.557,1.38,0.887,2.09c-1.44,1.227-2.347,2.646-2.658,3.58
	c-0.575,1.725-0.127,2.505,0.72,2.688c0.381,0.08,0.926-0.102,1.335-0.284c0.506-0.172,1.12-0.467,1.685-0.902
	c0.973-0.751,1.906-1.796,1.859-3.206c-0.029-0.649-0.196-1.287-0.419-1.896c1.227-0.527,2.813-0.832,4.828-0.578
	c4.332,0.527,5.188,3.347,5.023,4.522c-0.167,1.178-1.072,1.828-1.373,2.029c-0.302,0.194-0.399,0.264-0.37,0.406
	c0.039,0.213,0.176,0.203,0.438,0.162c0.359-0.062,2.277-0.964,2.355-3.135C280.997,198.144,278.456,195.1,273.949,195.131
	L273.949,195.131z M240.541,206.866c-1.432,1.633-3.447,2.251-4.303,1.724c-0.925-0.558-0.565-2.962,1.197-4.696
	c1.07-1.055,2.463-2.028,3.377-2.627c0.205-0.132,0.516-0.324,0.886-0.557c0.058-0.041,0.098-0.062,0.098-0.062
	c0.068-0.041,0.146-0.093,0.224-0.143C242.672,202.981,242.049,205.152,240.541,206.866L240.541,206.866z M251.004,199.451
	c-0.496,1.269-1.547,4.523-2.181,4.341c-0.545-0.151-0.875-2.617-0.106-5.05c0.389-1.228,1.216-2.688,1.703-3.256
	c0.789-0.914,1.646-1.218,1.859-0.842C252.533,195.131,251.316,198.66,251.004,199.451z M259.64,203.752
	c-0.215,0.112-0.409,0.192-0.497,0.132c-0.068-0.041,0.088-0.191,0.088-0.191s1.081-1.208,1.509-1.767
	c0.243-0.324,0.536-0.7,0.847-1.125v0.122C261.586,202.383,260.243,203.357,259.64,203.752z M266.297,202.169
	c-0.155-0.121-0.136-0.496,0.389-1.673c0.205-0.466,0.673-1.247,1.481-1.988c0.097,0.305,0.155,0.599,0.146,0.873
	C268.302,201.206,267.058,201.886,266.297,202.169z"/>
</svg>
