<?xml version="1.0" standalone="no"?>
<!DOCTYPE svg PUBLIC "-//W3C//DTD SVG 20010904//EN"
 "http://www.w3.org/TR/2001/REC-SVG-20010904/DTD/svg10.dtd">
<svg version="1.0" xmlns="http://www.w3.org/2000/svg"
 width="516.000000pt" height="516.000000pt" viewBox="0 0 516.000000 516.000000"
 preserveAspectRatio="xMidYMid meet">
<metadata>
Created by potrace 1.14, written by Peter Selinger 2001-2017
</metadata>
<g transform="translate(0.000000,516.000000) scale(0.100000,-0.100000)"
fill="#000000" stroke="none">
<path d="M369 4563 c0 -49 0 -3085 0 -3098 1 -7 189 -10 567 -10 311 0 570 -2
575 -5 5 -3 11 -33 14 -65 9 -90 51 -256 84 -329 145 -320 454 -461 1106 -503
236 -16 1099 -7 1157 11 7 3 45 7 83 10 39 3 79 8 90 10 11 2 40 7 65 11 109
16 281 69 370 112 174 84 277 216 332 423 20 76 22 108 22 295 0 185 -3 220
-22 289 -62 222 -194 370 -436 489 -145 71 -461 176 -609 203 l-39 7 7 51 c4
28 8 62 10 76 6 37 17 211 20 315 4 117 4 117 21 70 22 -58 24 -69 30 -180 3
-55 7 -105 9 -111 2 -8 148 -11 497 -10 l493 1 -1 100 c-3 513 -162 796 -520
931 -72 27 -237 68 -314 79 -25 3 -56 8 -70 10 -14 3 -52 7 -85 10 -91 8 -125
16 -125 30 0 29 -51 187 -81 251 -111 235 -280 379 -544 462 -99 31 -161 47
-231 58 -20 3 -44 7 -53 9 -9 1 -47 6 -86 10 -38 4 -81 9 -95 13 -14 3 -523 7
-1132 9 l-1108 4 -1 -38z m1971 -707 c136 -18 182 -30 238 -63 24 -13 42 -26
40 -28 -2 -1 -39 -6 -83 -9 -343 -28 -610 -122 -748 -262 -78 -79 -142 -204
-166 -324 -6 -30 -14 -66 -17 -80 -3 -14 -8 -106 -10 -205 -5 -245 22 -377
103 -503 32 -51 148 -172 165 -172 4 0 8 -4 8 -9 0 -6 -113 -9 -274 -9 -272 0
-274 1 -278 22 -4 19 -3 1548 1 1621 l1 31 483 -2 c265 0 507 -4 537 -8z m430
-918 c-1 -151 -8 -300 -14 -305 -2 -3 -15 1 -28 9 -116 63 -140 102 -137 216
2 86 23 141 64 168 25 16 107 44 113 39 2 -2 3 -59 2 -127z m805 -1214 c108
-34 192 -81 229 -127 27 -34 31 -48 34 -113 5 -96 -15 -154 -63 -184 -75 -46
-153 -54 -555 -54 -206 -1 -400 2 -430 7 -77 10 -149 35 -188 64 -37 27 -72
90 -72 128 0 23 4 25 48 26 26 0 54 2 62 4 8 1 47 6 85 9 39 4 88 11 110 16
22 5 56 11 75 14 41 6 176 43 205 55 11 5 45 19 75 32 66 28 199 111 226 140
21 24 36 22 159 -17z"/>
</g>
</svg>
